{"title":"The.Bad.Lieutenant.Port.Of.Call.New.Orleans.2009.480p.BRRip.XviD","uid":5499783,"size":2345994516,"categoryP":"video","categoryS":"movies","magnet":"?xt=urn:btih:a60811ab3cead6a5d9545c3579aa9c671d0af211&amp;dn=The.Bad.Lieutenant.Port.Of.Call.New.Orleans.2009.480p.BRRip.XviD&amp;tr=udp%3A%2F%2Ftracker.openbittorrent.com%3A80&amp;tr=udp%3A%2F%2Fopen.demonii.com%3A1337&amp;tr=udp%3A%2F%2Ftracker.coppersurfer.tk%3A6969&amp;tr=udp%3A%2F%2Fexodus.desync.com%3A6969","seeders":0,"leechers":1,"uploader":"mfccorrea","files":4,"time":1271469223,"description":"Abel Ferrara's cult crime drama Bad Lieutenant is given a sister film with this Werner Herzog-helmed production that takes its inspiration from the original, but focuses on new characters and plotlines. Nicolas Cage steps into Harvey Keitel's mold of a corrupt and drug-addled police officer, with the scummy setting moving from New York City to New Orleans. Eva Mendes, Val Kilmer, and Xzibit  co-star in the Nu Image/Millennium Films picture. \n\n   General\n      Complete name : The.Bad.Lieutenant.Port.Of.Call.New.Orleans.2009.480p.BRRip.XviD.AC3.PRoDJi.avi\n      Format : AVI\n      Format/Info : Audio Video Interleave\n      Format profile : OpenDML\n      File size : 2.18 GiB\n      Duration : 2h 2mn\n      Overall bit rate : 2 560 Kbps\n      Writing application : VirtualDubMod 1.5.10.1 (build 2439/release)\n      Writing library : VirtualDubMod build 2439/release\n   Video #0\n      ID : 0\n      Format : MPEG-4 Visual\n      Format profile : AdvancedSimple@L5\n      Format settings, BVOP : Yes\n      Format settings, QPel : No\n      Format settings, GMC : No warppoints\n      Format settings, Matrix : Custom\n      Codec ID : XVID\n      Codec ID/Hint : XviD\n      Duration : 2h 2mn\n      Bit rate : 2 101 Kbps\n      Width : 720 pixels\n      Height : 384 pixels\n      Display aspect ratio : 1.875\n      Frame rate : 23.976 fps\n      Resolution : 24 bits\n      Colorimetry : 4:2:0\n      Scan type : Progressive\n      Bits/(Pixel*Frame) : 0.317\n      Stream size : 1.79 GiB (82%)\n      Writing library : XviD 1.2.1 (UTC 2008-12-04)\n   Audio #1\n      ID : 1\n      Format : AC-3\n      Format/Info : Audio Coding 3\n      Codec ID : 2000\n      Duration : 2h 2mn\n      Bit rate mode : Constant\n      Bit rate : 448 Kbps\n      Channel(s) : 6 channels\n      Channel positions : Front: L C R, Surround: L R, LFE\n      Sampling rate : 48.0 KHz\n      Stream size : 391 MiB (17%)\n      Alignment : Split accross interleaves\n      Interleave, duration : 42 ms (1.00 video frame)\n      Interleave, preload duration : 500 ms\n &lt;a href=&quot;\nhttp://www.imdb.com/title/tt1095217/&quot; rel=&quot;nofollow&quot; target=&quot;_NEW&quot;&gt;\nhttp://www.imdb.com/title/tt1095217/&lt;/a&gt;\n\nEnglish audio; English, Spanish and Portuguese subtitles","torrent":{"xt":"urn:btih:a60811ab3cead6a5d9545c3579aa9c671d0af211","amp;dn":"The.Bad.Lieutenant.Port.Of.Call.New.Orleans.2009.480p.BRRip.XviD","amp;tr":["udp%3A%2F%2Ftracker.openbittorrent.com%3A80","udp%3A%2F%2Fopen.demonii.com%3A1337","udp%3A%2F%2Ftracker.coppersurfer.tk%3A6969","udp%3A%2F%2Fexodus.desync.com%3A6969"],"infoHash":"a60811ab3cead6a5d9545c3579aa9c671d0af211","infoHashBuffer":{"type":"Buffer","data":[166,8,17,171,60,234,214,165,217,84,92,53,121,170,156,103,29,10,242,17]},"announce":[],"urlList":[]}}